<svg width="253" height="24" fill="none" xmlns="http://www.w3.org/2000/svg"><path d="M3.38 4.32c.867-.36 1.7-.54 2.5-.54.667 0 1.353.247 2.06.74.387.267.82.787 1.3 1.56.32.533.727 1.5 1.22 2.9l2.44 6.92c.56 1.547 1.127 2.773 1.7 3.68.587.92 1.12 1.607 1.6 2.06.48.467.98.793 1.5.98.52.187.947.28 1.28.28.347 0 .653-.027.92-.08l.02.2c-.64.213-1.267.32-1.88.32s-1.227-.16-1.84-.48a6.231 6.231 0 01-1.72-1.3c-1.147-1.16-2.12-2.927-2.92-5.3l-.78-2.28H5.3l-1.38 3.56c-.067.16-.1.32-.1.48 0 .16.067.333.2.52.147.173.367.26.66.26h.16v.2H.82v-.2H1c.32 0 .633-.093.94-.28.307-.2.56-.493.76-.88L7.66 5.76c-.72-1.027-1.613-1.54-2.68-1.54-.48 0-.993.1-1.54.3l-.06-.2zm2.14 9.06h5.06L9 8.72c-.307-.893-.587-1.593-.84-2.1l-2.64 6.76zm11.178 5.42c.347 0 .64-.12.88-.36a1.3 1.3 0 00.4-.9V6.46a1.236 1.236 0 00-.4-.88 1.166 1.166 0 00-.88-.38h-.26V5h4.38v.2h-.26c-.48 0-.846.207-1.1.62-.12.2-.18.413-.18.64v11.92h2.86c.987 0 1.74-.22 2.26-.66.52-.44.954-1.093 1.3-1.96h.2L24.738 19h-8.3v-.2h.26zm10.938 0c.346 0 .64-.12.88-.36.253-.253.386-.553.4-.9V6.46a1.236 1.236 0 00-.4-.88 1.166 1.166 0 00-.88-.38h-.26V5h4.38v.2h-.26c-.48 0-.847.207-1.1.62-.12.2-.18.413-.18.64v11.92h2.86c.986 0 1.74-.22 2.26-.66.52-.44.953-1.093 1.3-1.96h.2L35.676 19h-8.3v-.2h.26zm17.15-14.48c.867-.36 1.7-.54 2.5-.54.667 0 1.354.247 2.06.74.387.267.82.787 1.3 1.56.32.533.727 1.5 1.22 2.9l2.44 6.92c.56 1.547 1.127 2.773 1.7 3.68.587.92 1.12 1.607 1.6 2.06.48.467.98.793 1.5.98.52.187.947.28 1.28.28.347 0 .654-.027.92-.08l.02.2a5.93 5.93 0 01-1.88.32c-.613 0-1.226-.16-1.84-.48a6.23 6.23 0 01-1.72-1.3c-1.146-1.16-2.12-2.927-2.92-5.3l-.78-2.28h-5.48l-1.38 3.56c-.066.16-.1.32-.1.48 0 .16.067.333.2.52.147.173.367.26.66.26h.16v.2h-4.02v-.2h.18c.32 0 .634-.093.94-.28.307-.2.56-.493.76-.88l4.96-11.88c-.72-1.027-1.613-1.54-2.68-1.54-.48 0-.993.1-1.54.3l-.06-.2zm2.14 9.06h5.06l-1.58-4.66c-.306-.893-.586-1.593-.84-2.1l-2.64 6.76zm15.038-7.76h-1.28v11.92c0 .347.12.647.36.9.254.24.56.36.92.36h.24l.02.2h-4.38v-.2h.26c.347 0 .64-.12.88-.36a1.23 1.23 0 00.4-.88V6.46a1.235 1.235 0 00-.4-.88 1.166 1.166 0 00-.88-.38h-.26V5h5.4c1.214 0 2.167.34 2.86 1.02.694.667 1.04 1.54 1.04 2.62 0 1.067-.333 1.993-1 2.78-.653.773-1.453 1.16-2.4 1.16.2.093.434.28.7.56.28.267.527.547.74.84 1.147 1.64 1.894 2.653 2.24 3.04.347.373.594.633.74.78.147.133.307.267.48.4.174.133.347.24.52.32.387.187.8.28 1.24.28v.2h-1.1c-.573 0-1.106-.1-1.6-.3-.493-.213-.866-.427-1.12-.64a14.49 14.49 0 01-.64-.64c-.173-.213-.666-.907-1.48-2.08-.813-1.173-1.286-1.84-1.42-2a7.558 7.558 0 00-.42-.5c-.426-.453-.853-.68-1.28-.68v-.2c.107.013.247.02.42.02.174 0 .387-.007.64-.02 1.654-.04 2.694-.733 3.12-2.08.08-.267.12-.513.12-.74v-.46c-.026-.893-.26-1.613-.7-2.16-.44-.547-1.033-.84-1.78-.88-.32-.013-.72-.02-1.2-.02zm10.257 1.12c1.427-1.347 3.274-2.02 5.54-2.02 2.28 0 4.134.673 5.56 2.02 1.427 1.333 2.14 3.087 2.14 5.26 0 2.173-.713 3.933-2.14 5.28-1.426 1.333-3.28 2-5.56 2-2.266 0-4.113-.667-5.54-2-1.426-1.347-2.14-3.107-2.14-5.28s.714-3.927 2.14-5.26zm1.08 10.1c1.134 1.227 2.62 1.84 4.46 1.84 1.84 0 3.32-.613 4.44-1.84 1.134-1.227 1.7-2.84 1.7-4.84s-.566-3.613-1.7-4.84c-1.12-1.227-2.6-1.84-4.44-1.84-1.84 0-3.326.613-4.46 1.84-1.12 1.227-1.68 2.84-1.68 4.84s.56 3.613 1.68 4.84zm27.34-11.64h-.32c-.28 0-.526.093-.74.28a.898.898 0 00-.32.66v7.92c0 1.56-.493 2.82-1.48 3.78-.986.96-2.3 1.44-3.94 1.44-1.64 0-2.973-.473-4-1.42-1.013-.96-1.52-2.22-1.52-3.78V6.2c0-.4-.173-.693-.52-.88a1.19 1.19 0 00-.54-.12h-.32V5h4.06v.2h-.32c-.293 0-.54.093-.74.28a.92.92 0 00-.32.68v7.64c0 1.453.387 2.627 1.16 3.52.787.893 1.834 1.34 3.14 1.34 1.307 0 2.367-.42 3.18-1.26.814-.853 1.22-1.967 1.22-3.34v-7.9a.918.918 0 00-.32-.68c-.2-.187-.446-.28-.74-.28h-.32V5h3.7v.2zm16.564 0c-.334 0-.62.12-.86.36-.24.227-.367.507-.38.84v10.32c0 .773.046 1.507.14 2.2l.04.36h-.18l-10.9-11.64v9.96c0 .333.12.62.36.86.24.227.526.34.86.34h.38v.2h-4.12v-.2h.38a1.197 1.197 0 001.22-1.22V7.2c0-.813-.047-1.54-.14-2.18l-.04-.32h.2l10.9 11.64V6.42a1.202 1.202 0 00-.38-.86c-.24-.24-.527-.36-.86-.36h-.38V5h4.12v.2h-.36zm9.041-.2c2.133 0 3.86.647 5.18 1.94 1.333 1.28 2 2.967 2 5.06 0 2.093-.667 3.787-2 5.08-1.32 1.28-3.047 1.92-5.18 1.92h-6.78v-.2h.26c.346 0 .64-.12.88-.36a1.31 1.31 0 00.4-.9V6.34c0-.32-.134-.587-.4-.8a1.282 1.282 0 00-.88-.34h-.24l-.02-.2h6.78zm-3.94.6v12.8h3.94c1.12 0 2.106-.267 2.96-.8.866-.533 1.533-1.28 2-2.24.48-.973.72-2.093.72-3.36 0-1.92-.527-3.467-1.58-4.64-1.04-1.173-2.407-1.76-4.1-1.76h-3.94zm28.872 1.18c0-.32-.113-.593-.34-.82a1.136 1.136 0 00-.8-.38h-3.8v11.98c.014.347.14.64.38.88.254.24.554.36.9.36h.26v.2h-4.38v-.2h.26c.347 0 .64-.12.88-.36.254-.24.387-.527.4-.86v-12h-3.8c-.32.013-.593.14-.82.38-.213.227-.32.5-.32.82v.34l-.2.02V4.62c.2.08.547.16 1.04.24.494.08.947.12 1.36.12h6.76c.654 0 1.194-.047 1.62-.14.44-.107.707-.18.8-.22v2.52l-.2-.02v-.34zm11.524 12.02c.346 0 .64-.12.88-.36.253-.253.386-.547.4-.88v-5.18h-8.18v5.18c0 .347.126.64.38.88.253.24.553.36.9.36h.26v.2h-4.38v-.2h.26c.346 0 .64-.12.88-.36a1.24 1.24 0 00.4-.88V6.44a1.24 1.24 0 00-.4-.88c-.24-.24-.534-.36-.88-.36h-.26V5h4.38v.2h-.26a1.263 1.263 0 00-1.28 1.24v5.34h8.18V6.44c-.014-.48-.227-.84-.64-1.08-.2-.107-.414-.16-.64-.16h-.26V5h4.38v.2h-.26a1.23 1.23 0 00-.9.38c-.24.24-.367.533-.38.88v11.1a1.263 1.263 0 001.28 1.24h.26v.2h-4.38v-.2h.26zm.051 0c.347 0 .64-.12.88-.36.253-.253.387-.553.4-.9V6.34c0-.32-.127-.587-.38-.8a1.304 1.304 0 00-.9-.34h-.24l-.02-.2h5.86c.413 0 .86-.04 1.34-.12.493-.08.84-.16 1.04-.24v2.52h-.2V6.8c0-.32-.113-.593-.34-.82a1.1 1.1 0 00-.78-.36h-4.08v6.18h3.38a1 1 0 00.68-.3.948.948 0 00.28-.7v-.28h.2v3.16h-.2v-.3a.925.925 0 00-.28-.68.927.927 0 00-.66-.3h-3.4v5.98h2.86c.987 0 1.74-.22 2.26-.66.52-.44.953-1.093 1.3-1.96h.2l-1.16 3.24h-8.3v-.2h.26zM201.676.12h.26v.2a4.546 4.546 0 00-1.78.44 5.314 5.314 0 00-1.42.96c-.387.36-.747.8-1.08 1.32a13.359 13.359 0 00-1.36 2.84l-3.84 11.14c-.267.84-.413 1.58-.44 2.22h-.18l-4.08-11.42-3.22 10.08c-.48 1.507-1.253 2.68-2.32 3.52-.773.627-1.64.94-2.6.94-.333 0-.687-.04-1.06-.12l.04-.2c.2.04.427.06.68.06.267 0 .613-.08 1.04-.24.44-.16.873-.447 1.3-.86.867-.84 1.533-1.893 2-3.16l-4.04-11.42c-.16-.4-.407-.7-.74-.9a1.87 1.87 0 00-1.02-.32h-.16V5h4.44v.2h-.18c-.28 0-.493.093-.64.28-.133.173-.2.34-.2.5 0 .16.02.307.06.44l3.04 9.74 3.72-11.48.18.02 3.96 11.08 2.96-9.9a9.593 9.593 0 011.6-3.14c1.333-1.747 3.027-2.62 5.08-2.62zm-1.818 6.62c1.427-1.347 3.273-2.02 5.54-2.02 2.28 0 4.133.673 5.56 2.02 1.427 1.333 2.14 3.087 2.14 5.26 0 2.173-.713 3.933-2.14 5.28-1.427 1.333-3.28 2-5.56 2-2.267 0-4.113-.667-5.54-2-1.427-1.347-2.14-3.107-2.14-5.28s.713-3.927 2.14-5.26zm1.08 10.1c1.133 1.227 2.62 1.84 4.46 1.84 1.84 0 3.32-.613 4.44-1.84 1.133-1.227 1.7-2.84 1.7-4.84s-.567-3.613-1.7-4.84c-1.12-1.227-2.6-1.84-4.44-1.84-1.84 0-3.327.613-4.46 1.84-1.12 1.227-1.68 2.84-1.68 4.84s.56 3.613 1.68 4.84zM218.8 5.62h-1.28v11.92c0 .347.12.647.36.9.254.24.56.36.92.36h.24l.02.2h-4.38v-.2h.26c.347 0 .64-.12.88-.36a1.23 1.23 0 00.4-.88V6.46a1.231 1.231 0 00-.4-.88 1.165 1.165 0 00-.88-.38h-.26V5h5.4c1.214 0 2.167.34 2.86 1.02.694.667 1.04 1.54 1.04 2.62 0 1.067-.333 1.993-1 2.78-.653.773-1.453 1.16-2.4 1.16.2.093.434.28.7.56.28.267.527.547.74.84 1.147 1.64 1.894 2.653 2.24 3.04.347.373.594.633.74.78.147.133.307.267.48.4.174.133.347.24.52.32.387.187.8.28 1.24.28v.2h-1.1c-.573 0-1.106-.1-1.6-.3-.493-.213-.866-.427-1.12-.64-.24-.227-.453-.44-.64-.64-.173-.213-.666-.907-1.48-2.08-.813-1.173-1.286-1.84-1.42-2a7.378 7.378 0 00-.42-.5c-.426-.453-.853-.68-1.28-.68v-.2c.107.013.247.02.42.02.174 0 .387-.007.64-.02 1.654-.04 2.694-.733 3.12-2.08.08-.267.12-.513.12-.74v-.46c-.026-.893-.26-1.613-.7-2.16-.44-.547-1.033-.84-1.78-.88-.32-.013-.72-.02-1.2-.02zm9.07 13.18c.347 0 .64-.12.88-.36.253-.253.387-.553.4-.9V6.46a1.235 1.235 0 00-.4-.88 1.165 1.165 0 00-.88-.38h-.26V5h4.38v.2h-.26c-.48 0-.847.207-1.1.62-.12.2-.18.413-.18.64v11.92h2.86c.987 0 1.74-.22 2.26-.66.52-.44.953-1.093 1.3-1.96h.2L235.91 19h-8.3v-.2h.26zM245.328 5c2.133 0 3.86.647 5.18 1.94 1.333 1.28 2 2.967 2 5.06 0 2.093-.667 3.787-2 5.08-1.32 1.28-3.047 1.92-5.18 1.92h-6.78v-.2h.26c.346 0 .64-.12.88-.36a1.31 1.31 0 00.4-.9V6.34c0-.32-.134-.587-.4-.8a1.282 1.282 0 00-.88-.34h-.24l-.02-.2h6.78zm-3.94.6v12.8h3.94c1.12 0 2.106-.267 2.96-.8.866-.533 1.533-1.28 2-2.24.48-.973.72-2.093.72-3.36 0-1.92-.527-3.467-1.58-4.64-1.04-1.173-2.407-1.76-4.1-1.76h-3.94z" fill="#000"/></svg>